# xmcd
#
# Track frame offsets: 
#        150
#        22722
#        40182
#
# Disc length: 1066 seconds
#
# Revision: 0
# Processed by: cddbd v1.4PL0 Copyright (c) Steve Scherf et al.
# Submitted via: ExactAudioCopy v0.90b4
#
DISCID=14042803
DTITLE=Neil Young - Goin' Home
DYEAR=2002
DGENRE=Classic Rock
TTITLE0=Goin' Home (edit)
TTITLE1=Differently (edit)
TTITLE2=Goin' Home (album version)
EXTD=
EXTT0=
EXTT1=
EXTT2=
PLAYORDER=
